Coordinates
version=1
nRows=9
nColumns=36
inDegrees=yes

Units are S.I. units (second, meters, Newtons, ...)
If the header above contains a line with 'inDegrees', this indicates whether rotational values are in degrees (yes) or radians (no).

endheader
time	pelvis_tilt	pelvis_list	pelvis_rotation	pelvis_tx	pelvis_ty	pelvis_tz	hip_flexion_r	hip_adduction_r	hip_rotation_r	knee_angle_r	knee_angle_r_beta	ankle_angle_r	subtalar_angle_r	mtp_angle_r	hip_flexion_l	hip_adduction_l	hip_rotation_l	knee_angle_l	knee_angle_l_beta	ankle_angle_l	subtalar_angle_l	mtp_angle_l	lumbar_extension	lumbar_bending	lumbar_rotation	arm_flex_r	arm_add_r	arm_rot_r	elbow_flex_r	pro_sup_r	arm_flex_l	arm_add_l	arm_rot_l	elbow_flex_l	pro_sup_l
     14.98333330	     10.17529341	     -4.05920059	     -2.26947204	      0.80104892	      1.07203520	      0.76789433	    -10.03179197	      5.20979579	      1.96125322	      6.51608422	      0.11372712	      8.75236661	      0.87826531	     -7.49999987	     13.58044726	     -6.79020846	     -2.10359406	     59.80546922	      1.04380235	      9.08657407	     -5.50935565	     -7.49999987	    -24.21475465	      5.43980232	      6.21823357	     11.49011733	    -19.07823047	      9.69549720	     41.60572238	     61.53588137	      0.81516546	     -7.61612426	      5.19003241	     21.76208784	     66.72903002
     15.00000000	     10.15014853	     -3.82767119	     -2.36704831	      0.79525454	      1.07164603	      0.77040862	    -11.25346711	      5.00477146	      2.16264747	      6.08456541	      0.10619570	      8.98301830	      0.88130263	     -7.49999987	     14.51585259	     -6.63950940	     -2.29825563	     55.07868341	      0.96130437	      8.93041341	     -5.86395404	     -7.49999987	    -24.48836811	      4.83031711	      6.31911834	     12.92909344	    -19.46220318	     10.35049884	     42.85875758	     62.68895001	      0.66661816	     -7.89651927	      6.99932094	     20.20764431	     67.76787569
     15.01666670	     10.05824616	     -3.63126671	     -2.46898744	      0.79211244	      1.07102587	      0.77085143	    -12.36428874	      4.81535601	      2.37872928	      5.63906493	      0.09842025	      9.15428533	      0.74207978	     -7.49999987	     15.27468698	     -6.55909713	     -2.52315338	     49.75344002	      0.86836134	      8.46561304	     -6.11501391	     -7.49999987	    -24.77931048	      4.28045482	      6.20880494	     14.38271894	    -19.61734084	     10.20118240	     44.03316782	     62.96284887	      0.11095633	     -8.02153675	      7.46448179	     19.54940449	     68.11136455
     15.03333330	      9.95416049	     -3.46467979	     -2.57251578	      0.79160101	      1.06961271	      0.76915214	    -13.54956911	      4.60418305	      2.54847671	      5.04282112	      0.08801383	      9.46182503	      0.75636896	     -7.49999987	     15.81043912	     -6.49516441	     -2.72666961	     43.97283050	      0.76747067	      7.76527331	     -6.25035599	     -7.49999987	    -24.97041976	      3.80576453	      6.12529877	     15.55859040	    -20.01212302	     10.24304604	     45.23602322	     63.46798259	     -0.43685004	     -8.10253939	      8.25768902	     18.74545376	     68.77438553
     15.05000000	      9.83291426	     -3.36907346	     -2.69710176	      0.79262110	      1.06730642	      0.76629803	    -14.85699844	      4.40762952	      2.77083461	      4.28192398	      0.07473367	     10.10609800	      0.89026739	     -7.49999987	     16.15938658	     -6.50601304	     -2.95481117	     37.95487179	      0.66243748	      7.18355758	     -5.97789261	     -7.49999987	    -25.05379824	      3.43995494	      6.05232043	     16.36115107	    -20.46825055	     10.12875575	     46.36785983	     63.92461163	     -1.00479359	     -8.06653867	      8.96794383	     17.78298128	     69.43410489
     15.06666670	      9.48696055	     -3.34813101	     -2.73488094	      0.79378123	      1.06199869	      0.76216921	    -16.08163851	      4.27109328	      2.96551136	      3.38529968	      0.05908463	     10.89085784	      0.96465368	     -7.49999987	     16.62823416	     -6.55625468	     -3.06511346	     31.89252517	      0.55662957	      6.88149864	     -5.17836433	     -7.49999987	    -24.61183927	      3.25519972	      5.89914813	     16.85663020	    -20.89997334	      9.95989479	     47.15182938	     64.14475143	     -1.69148978	     -7.94849804	      9.29026173	     16.73861850	     69.80248202
     15.08333330	      9.56848259	     -3.38338508	     -2.80602349	      0.79284620	      1.05478869	      0.75630141	    -17.83441247	      4.07878326	      3.02527252	      2.50067444	      0.04364500	     11.83625412	      1.38048995	     -7.49999987	     16.45630504	     -6.56446665	     -3.17502860	     25.76140956	      0.44962142	      6.90701590	     -4.02136836	     -7.49999987	    -24.87455899	      3.16098750	      6.52283986	     16.18505412	    -22.14974320	      9.08060494	     50.10688605	     65.22936620	     -1.69486863	     -7.84285762	     10.98393112	     15.77920448	     71.37695327
     15.10000000	      9.38618993	     -3.41596319	     -2.79018041	      0.79026516	      1.04812383	      0.75026456	    -19.29807296	      3.88967430	      2.91138399	      1.83805265	      0.03208007	     12.79108776	      1.91997143	     -7.49999987	     16.45992115	     -6.42647070	     -2.99106113	     19.83580432	      0.34620010	      7.12115400	     -2.73906512	     -7.49999987	    -24.67509309	      3.19285302	      6.60595772	     16.01025127	    -22.66841563	      7.95325925	     51.63593922	     65.66708049	     -1.92697668	     -7.58555121	     11.61883699	     14.92816923	     72.05997635
     15.11666670	      9.25650168	     -3.43929438	     -2.79884225	      0.78763587	      1.04509528	      0.74623497	    -20.74254778	      3.67495850	      3.10884365	      1.47932014	      0.02581901	     13.40320427	      2.06945910	     -7.49999987	     16.31881583	     -6.17271766	     -2.55145274	     14.61577551	      0.25509341	      7.61764925	     -1.38242732	     -7.49999987	    -24.53816248	      3.27401000	      6.68187684	     15.77569696	    -23.42480430	      7.67935264	     53.36541788	     65.81296372	     -2.06431788	     -7.24937884	     12.20552292	     14.45056314	     72.08365152
